<?xml version="1.0" standalone="no"?>
<!DOCTYPE svg PUBLIC "-//W3C//DTD SVG 20010904//EN"
 "http://www.w3.org/TR/2001/REC-SVG-20010904/DTD/svg10.dtd">
<svg version="1.0" xmlns="http://www.w3.org/2000/svg"
 width="336.000000pt" height="280.000000pt" viewBox="0 0 336.000000 280.000000"
 preserveAspectRatio="xMidYMid meet">

<g transform="translate(0.000000,280.000000) scale(0.100000,-0.100000)"
 stroke="none">
<path d="M890 2291 c-56 -17 -110 -53 -148 -96 -76 -86 -73 -49 -70 -906 l3
-764 23 -42 c28 -54 81 -107 135 -135 l42 -23 769 -3 c862 -3 825 -6 910 69
25 22 57 65 73 97 l28 57 0 760 c0 608 -3 768 -13 798 -23 64 -85 132 -149
163 l-58 29 -760 2 c-418 1 -771 -2 -785 -6z m400 -61 c25 -14 34 -48 70 -284
34 -216 42 -246 64 -246 18 0 17 -6 67 250 23 118 46 221 52 228 13 17 62 15
77 -4 11 -12 11 -50 2 -202 -7 -103 -12 -226 -12 -274 l0 -87 -52 -19 c-71
-26 -123 -40 -182 -47 -117 -15 -146 -137 -51 -217 38 -32 105 -48 202 -48
l94 0 -31 -57 c-17 -32 -70 -109 -118 -171 l-87 -114 -84 -4 c-70 -3 -89 -1
-115 15 -69 43 -111 138 -151 337 -29 144 -30 147 -145 319 -118 175 -137 212
-124 233 6 9 22 18 36 20 22 3 41 -16 133 -126 109 -131 150 -166 161 -137 9
24 0 51 -91 256 -47 106 -85 202 -83 213 4 26 46 48 68 36 9 -5 56 -87 105
-182 92 -181 120 -228 136 -228 13 0 11 101 -7 320 -14 180 -14 193 2 211 19
21 37 24 64 9z m882 -606 c35 -30 89 -70 120 -87 71 -39 92 -77 91 -162 -1
-67 -34 -174 -91 -300 l-36 -80 -5 -236 c-6 -246 -11 -269 -51 -269 -33 0 -42
29 -60 194 -18 160 -30 206 -51 206 -19 0 -37 -66 -69 -255 -37 -220 -49 -255
-82 -255 -60 1 -60 3 -28 286 21 181 21 214 1 214 -9 0 -122 -189 -212 -355
-23 -44 -48 -83 -53 -87 -32 -22 -86 4 -86 43 0 10 43 112 96 226 153 331 146
339 -91 103 -185 -185 -202 -195 -234 -138 -15 25 -14 29 14 66 17 22 87 115
157 207 120 159 197 285 212 349 5 18 2 36 -9 52 -15 23 -19 24 -146 24 -133
0 -168 8 -198 44 -19 22 3 46 41 46 53 0 169 41 320 112 195 91 240 106 320
107 l67 1 63 -56z m282 -134 c21 -52 22 -188 2 -216 -25 -33 -35 -6 -23 58 8
47 7 69 -6 118 -21 73 -21 80 -3 80 8 0 21 -18 30 -40z m97 -17 c26 -79 4
-224 -35 -231 -16 -3 -18 0 -12 19 21 76 27 134 17 175 -15 57 -14 74 3 74 8
0 20 -17 27 -37z m-1521 -459 c19 -48 70 -112 107 -135 21 -12 40 -24 42 -25
2 -2 1 -10 -3 -19 -5 -14 -10 -13 -44 4 -64 33 -152 151 -138 187 8 22 26 16
36 -12z m-62 -67 c19 -41 45 -77 75 -103 50 -44 59 -64 28 -64 -56 0 -179 189
-144 223 10 11 12 10 41 -56z"/>
</g>
</svg>
